<?xml version="1.0" encoding="utf-8"?>
<COLLADA xmlns="http://www.collada.org/2005/11/COLLADASchema" version="1.4.1" xmlns:xsi="http://www.w3.org/2001/XMLSchema-instance">
  <asset>
    <contributor>
      <author>Blender User</author>
      <authoring_tool>Blender 3.6.20 commit date:2025-01-20, commit time:15:08, hash:46254438b9dd</authoring_tool>
    </contributor>
    <created>2026-06-01T14:08:15</created>
    <modified>2026-06-01T14:08:15</modified>
    <unit name="meter" meter="1"/>
    <up_axis>Z_UP</up_axis>
  </asset>
  <library_effects>
    <effect id="Road-effect">
      <profile_COMMON>
        <technique sid="common">
          <lambert>
            <emission>
              <color sid="emission">0 0 0 1</color>
            </emission>
            <diffuse>
              <color sid="diffuse">0.64 0.64 0.64 1</color>
            </diffuse>
            <index_of_refraction>
              <float sid="ior">1</float>
            </index_of_refraction>
          </lambert>
        </technique>
      </profile_COMMON>
    </effect>
  </library_effects>
  <library_images/>
  <library_materials>
    <material id="Road-material" name="Road">
      <instance_effect url="#Road-effect"/>
    </material>
  </library_materials>
  <library_geometries>
    <geometry id="Freeway_Straight_2_mesh-mesh" name="Freeway Straight 2_mesh">
      <mesh>
        <source id="Freeway_Straight_2_mesh-mesh-positions">
          <float_array id="Freeway_Straight_2_mesh-mesh-positions-array" count="144">0 -5 -3.59614e-6 0 -5 -10 0 -5 -5.000004 2.5 -4.27801e-7 -10 2.5 -2.09244e-7 -5.000004 2.4 0.2499995 -10 2.5 0.1499994 -10 2.5 0.15 -3.83057e-6 2.4 0.25 -3.83457e-6 2.5 0.1499997 -5.000004 2.4 0.2499998 -5.000004 0.09999996 0.25 -3.826e-6 0 0.15 -3.82125e-6 0 0.1499994 -10 0.09999996 0.2499995 -10 0 0.1499997 -5.000004 0.09999996 0.2499998 -5.000004 25 -5 -3.68927e-6 25 -5 -10 25 -5 -5.000004 22.5 -3.53295e-7 -10 22.5 -1.34738e-7 -5.000004 22.6 0.2500001 -3.90982e-6 22.5 0.15 -3.90507e-6 22.5 0.1499996 -10 22.6 0.2499996 -10 22.6 0.2499998 -5.000004 22.5 0.1499997 -5.000004 25 0.15 -3.91439e-6 24.9 0.2500001 -3.91839e-6 24.9 0.2499997 -10 25 0.1499996 -10 25 0.1499999 -5.000004 24.9 0.2499998 -5.000004 12.6 -3.90175e-7 -10 7.4 -4.09547e-7 -10 7.6 -4.08802e-7 -10 12.4 0 -3.86089e-6 2.5 0 -3.82401e-6 12.6 0 -3.86164e-6 7.6 -1.90245e-7 -5.000004 7.4 -1.9099e-7 -5.000004 12.4 -3.9092e-7 -10 17.4 -3.72294e-7 -10 17.6 -3.71549e-7 -10 22.5 0 -3.89852e-6 17.6 -1.52992e-7 -5.000004 17.4 -1.53737e-7 -5.000004</float_array>
          <technique_common>
            <accessor source="#Freeway_Straight_2_mesh-mesh-positions-array" count="48" stride="3">
              <param name="X" type="float"/>
              <param name="Y" type="float"/>
              <param name="Z" type="float"/>
            </accessor>
          </technique_common>
        </source>
        <source id="Freeway_Straight_2_mesh-mesh-normals">
          <float_array id="Freeway_Straight_2_mesh-mesh-normals-array" count="138">0 1 0 -0.7071074 0.7071063 0 -1 0 0 0.7071068 0.7071068 0 1 0 0 -0.7071071 0.7071066 0 0 1 0 0 1 0 0.7071062 0.7071074 0 0 1 0 -0.707107 0.7071067 0 0.7071073 0.7071063 0 1 -4.37127e-7 0 0.7071069 0.7071067 0 0 1 0 0 1 0 -0.7070958 0.7071179 0 0 1 0 0 1 0 0 1 0 0 1 0 0 1 0 0 1 0 0 1 0 0 1 0 0 1 0 0 1 0 0 1 0 0 1 0 -0.707107 0.7071066 0 0.7071072 0.7071064 0 -0.7071073 0.7071064 0 0 1 0 0 1 0 0.707096 0.7071176 0 -0.7071068 0.7071068 0 0.7071065 0.7071071 0 0.7071079 0.7071056 0 0 1 0 0 1 0 -0.7071173 0.7070963 0 0 1 0 0 1 0 0 1 0 0 1 0 0 1 0</float_array>
          <technique_common>
            <accessor source="#Freeway_Straight_2_mesh-mesh-normals-array" count="46" stride="3">
              <param name="X" type="float"/>
              <param name="Y" type="float"/>
              <param name="Z" type="float"/>
            </accessor>
          </technique_common>
        </source>
        <source id="Freeway_Straight_2_mesh-mesh-map-0">
          <float_array id="Freeway_Straight_2_mesh-mesh-map-0-array" count="360">0.780662 0.5 0.843035 0.3644066 0.843035 0.5 0.8468701 0.6355935 0.843035 0.5 0.8468701 0.5 0.9865315 0.5 0.8468701 0.3644066 0.9865315 0.3644066 0.9865315 0.6355935 0.8468701 0.5 0.9865315 0.5 0.7768268 0.5 0.780662 0.6355935 0.7768268 0.6355935 0.772759 0.5 0.7768268 0.3644066 0.7768268 0.5 0.8468701 0.5 0.843035 0.3644066 0.8468701 0.3644066 0.780662 0.6355935 0.843035 0.5 0.843035 0.6355935 0.222482 0.3644065 0.160109 0.4999999 0.160109 0.3644065 0.1562739 0.3644065 0.160109 0.4999999 0.1562739 0.4999999 0.230385 0.5 0.2263172 0.3644065 0.230385 0.3644065 0.160109 0.6355934 0.222482 0.5 0.222482 0.6355934 0.1562739 0.3644065 0.01661258 0.4999998 0.01661258 0.3644065 0.222482 0.5 0.2263172 0.6355934 0.222482 0.6355934 0.1562739 0.4999999 0.160109 0.6355934 0.1562739 0.6355934 0.01661258 0.4999998 0.1562739 0.6355934 0.01661258 0.6355933 0.7768268 0.3644066 0.780662 0.5 0.7768268 0.5 0.6398773 0.5 0.772759 0.3644066 0.772759 0.5 0.6344536 0.3644066 0.6398773 0.5 0.6344536 0.5 0.222482 0.3644065 0.2263172 0.5 0.222482 0.5 0.4988601 0.3644066 0.5042839 0.6355934 0.4988601 0.6355934 0.5042839 0.6355934 0.6398773 0.5 0.772759 0.6355935 0.4988601 0.6355934 0.3686903 0.5 0.4988601 0.3644066 0.3632666 0.3644066 0.3686903 0.5 0.3632666 0.5 0.6344536 0.5 0.5042839 0.3644066 0.6344536 0.3644066 0.230385 0.5 0.3632666 0.3644066 0.3632666 0.5 0.4988601 0.3644066 0.3686903 0.5 0.3686904 0.3644066 0.772759 0.6355935 0.7768268 0.5 0.7768268 0.6355935 0.5042839 0.6355934 0.5042839 0.3644066 0.6344536 0.5 0.230385 0.6355934 0.2263172 0.5 0.230385 0.5 0.772759 0.6355935 0.6398773 0.5 0.772759 0.5 0.3632666 0.5 0.4988601 0.6355934 0.230385 0.6355934 0.230385 0.5 0.3632666 0.5 0.230385 0.6355934 0.780662 0.5 0.780662 0.3644066 0.843035 0.3644066 0.8468701 0.6355935 0.843035 0.6355935 0.843035 0.5 0.9865315 0.5 0.8468701 0.5 0.8468701 0.3644066 0.9865315 0.6355935 0.8468701 0.6355935 0.8468701 0.5 0.7768268 0.5 0.780662 0.5 0.780662 0.6355935 0.772759 0.5 0.772759 0.3644066 0.7768268 0.3644066 0.8468701 0.5 0.843035 0.5 0.843035 0.3644066 0.780662 0.6355935 0.780662 0.5 0.843035 0.5 0.222482 0.3644065 0.222482 0.5 0.160109 0.4999999 0.1562739 0.3644065 0.160109 0.3644065 0.160109 0.4999999 0.230385 0.5 0.2263172 0.5 0.2263172 0.3644065 0.160109 0.6355934 0.160109 0.4999999 0.222482 0.5 0.1562739 0.3644065 0.1562739 0.4999999 0.01661258 0.4999998 0.222482 0.5 0.2263172 0.5 0.2263172 0.6355934 0.1562739 0.4999999 0.160109 0.4999999 0.160109 0.6355934 0.01661258 0.4999998 0.1562739 0.4999999 0.1562739 0.6355934 0.7768268 0.3644066 0.780662 0.3644066 0.780662 0.5 0.6398773 0.5 0.6398773 0.3644065 0.772759 0.3644066 0.6344536 0.3644066 0.6398773 0.3644065 0.6398773 0.5 0.222482 0.3644065 0.2263172 0.3644065 0.2263172 0.5 0.4988601 0.3644066 0.5042839 0.3644066 0.5042839 0.6355934 0.5042839 0.6355934 0.6344536 0.5 0.6398773 0.5 0.3632666 0.3644066 0.3686904 0.3644066 0.3686903 0.5 0.230385 0.5 0.230385 0.3644065 0.3632666 0.3644066 0.772759 0.6355935 0.772759 0.5 0.7768268 0.5 0.230385 0.6355934 0.2263172 0.6355934 0.2263172 0.5 0.3632666 0.5 0.3686903 0.5 0.4988601 0.6355934</float_array>
          <technique_common>
            <accessor source="#Freeway_Straight_2_mesh-mesh-map-0-array" count="180" stride="2">
              <param name="S" type="float"/>
              <param name="T" type="float"/>
            </accessor>
          </technique_common>
        </source>
        <vertices id="Freeway_Straight_2_mesh-mesh-vertices">
          <input semantic="POSITION" source="#Freeway_Straight_2_mesh-mesh-positions"/>
        </vertices>
        <triangles material="Road-material" count="60">
          <input semantic="VERTEX" source="#Freeway_Straight_2_mesh-mesh-vertices" offset="0"/>
          <input semantic="NORMAL" source="#Freeway_Straight_2_mesh-mesh-normals" offset="1"/>
          <input semantic="TEXCOORD" source="#Freeway_Straight_2_mesh-mesh-map-0" offset="2" set="0"/>
          <p>10 0 0 14 0 1 16 0 2 12 1 3 16 1 4 15 1 5 2 2 6 13 2 7 1 2 8 0 2 9 15 2 10 2 2 11 9 3 12 8 3 13 7 3 14 4 4 15 6 4 16 9 4 17 15 5 18 14 5 19 13 5 20 8 6 21 16 6 22 11 6 23 25 7 24 33 7 25 30 7 26 31 8 27 33 8 28 32 8 29 21 2 30 24 2 31 20 2 32 29 9 33 26 9 34 22 9 35 31 4 36 19 4 37 18 4 38 26 10 39 23 10 40 22 10 41 32 11 42 29 11 43 28 11 44 19 12 45 28 12 46 17 12 47 6 13 48 10 13 49 9 13 50 41 14 51 3 14 52 4 14 53 36 15 54 41 15 55 40 15 56 25 16 57 27 16 58 26 16 59 34 17 60 37 17 61 39 17 62 37 18 63 41 18 64 38 18 65 39 19 66 47 19 67 34 19 68 44 20 69 47 20 70 46 20 71 40 21 72 42 21 73 36 21 74 21 22 75 44 22 76 46 22 77 34 23 78 47 23 79 43 23 80 38 4 81 9 4 82 7 4 83 37 24 84 42 24 85 40 24 86 45 2 87 27 2 88 21 2 89 38 25 90 41 25 91 4 25 92 46 26 93 39 26 94 45 26 95 21 27 96 46 27 97 45 27 98 10 28 99 5 28 100 14 28 101 12 29 102 11 29 103 16 29 104 2 2 105 15 2 106 13 2 107 0 2 108 12 2 109 15 2 110 9 30 111 10 30 112 8 30 113 4 4 114 3 4 115 6 4 116 15 31 117 16 31 118 14 31 119 8 32 120 10 32 121 16 32 122 25 33 123 26 33 124 33 33 125 31 34 126 30 34 127 33 34 128 21 2 129 27 2 130 24 2 131 29 9 132 33 9 133 26 9 134 31 4 135 32 4 136 19 4 137 26 35 138 27 35 139 23 35 140 32 36 141 33 36 142 29 36 143 19 4 144 32 4 145 28 4 146 6 37 147 5 37 148 10 37 149 41 38 150 35 38 151 3 38 152 36 39 153 35 39 154 41 39 155 25 40 156 24 40 157 27 40 158 34 41 159 42 41 160 37 41 161 37 42 162 40 42 163 41 42 164 44 43 165 43 43 166 47 43 167 21 44 168 20 44 169 44 44 170 38 4 171 4 4 172 9 4 173 45 2 174 23 2 175 27 2 176 46 45 177 47 45 178 39 45 179</p>
        </triangles>
      </mesh>
    </geometry>
  </library_geometries>
  <library_visual_scenes>
    <visual_scene id="Scene" name="Scene">
      <node id="Freeway_Straight_2_mesh" name="Freeway_Straight_2_mesh" type="NODE">
        <matrix sid="transform">1 1.86265e-9 -1.86264e-9 0 -1.86265e-9 7.54979e-8 -1 0 -1.86265e-9 1 7.54979e-8 0 0 0 0 1</matrix>
        <instance_geometry url="#Freeway_Straight_2_mesh-mesh" name="Freeway_Straight_2_mesh">
          <bind_material>
            <technique_common>
              <instance_material symbol="Road-material" target="#Road-material">
                <bind_vertex_input semantic="Freeway_Straight_2_mesh-mesh-map-0" input_semantic="TEXCOORD" input_set="0"/>
              </instance_material>
            </technique_common>
          </bind_material>
        </instance_geometry>
      </node>
    </visual_scene>
  </library_visual_scenes>
  <scene>
    <instance_visual_scene url="#Scene"/>
  </scene>
</COLLADA>